<?xml version="1.0" encoding="UTF-8"?>
<svg xmlns="http://www.w3.org/2000/svg" width="300" height="300" viewBox="0 0 300 300">
  <circle cx="150" cy="150" r="150" fill="#0055A4"/>
  <path d="M150,70 C135,70 115,75 115,100 C115,110 120,120 130,125 C120,130 115,140 120,150 C125,160 140,165 150,165 C160,165 175,160 180,150 C185,140 180,130 170,125 C180,120 185,110 185,100 C185,75 165,70 150,70 Z" fill="white" stroke="black" stroke-width="4"/>
  <path d="M165,90 C165,85 160,80 150,80 C140,80 135,85 135,90 C135,95 140,100 150,100 C160,100 165,95 165,90 Z" fill="white" stroke="black" stroke-width="4"/>
  <path d="M140,85 A5,5 0 1,1 150,85 A5,5 0 1,1 140,85" fill="black"/>
  <path d="M150,85 A5,5 0 1,1 160,85 A5,5 0 1,1 150,85" fill="black"/>
  <path d="M145,95 C145,95 150,100 155,95" fill="none" stroke="black" stroke-width="2"/>
  <path d="M125,105 L120,110 C120,110 125,115 130,110 L125,105 Z" fill="white" stroke="black" stroke-width="2"/>
  <path d="M175,105 L180,110 C180,110 175,115 170,110 L175,105 Z" fill="white" stroke="black" stroke-width="2"/>
  <path d="M62,200 L80,200 L85,180 L90,200 L105,200 L110,180 L115,200 L125,200 L115,165 L100,165 L95,185 L90,165 L75,165 L62,200 Z" fill="white"/>
  <path d="M130,200 L140,200 L140,165 L130,165 L130,200 Z" fill="white"/>
  <path d="M145,200 L155,200 L155,185 L170,185 L170,175 L155,175 L155,175 L155,165 L145,165 L145,200 Z" fill="white"/>
  <path d="M175,200 L185,200 L185,165 L175,165 L175,200 Z" fill="white"/>
  <path d="M190,200 L200,200 L200,165 L190,165 L190,200 Z" fill="white"/>
  <path d="M205,200 L245,200 L245,190 L215,190 L215,187 L240,187 L240,177 L215,177 L215,175 L245,175 L245,165 L205,165 L205,200 Z" fill="white"/>
  <path d="M250,200 L260,200 L260,165 L250,165 L250,200 Z" fill="white"/>
  <path d="M265,200 L275,200 L275,180 L285,180 L285,200 L295,200 L295,165 L265,165 L265,200 Z" fill="white"/>
</svg>