<?xml version="1.0" encoding="UTF-8"?>
<svg width="512" height="512" viewBox="0 0 512 512" fill="none" xmlns="http://www.w3.org/2000/svg">
  <circle cx="256" cy="256" r="256" fill="white"/>
  <path d="M256 90C170.2 90 100 160.2 100 246C100 331.8 170.2 402 256 402C341.8 402 412 331.8 412 246C412 160.2 341.8 90 256 90ZM256 115.3C327.7 115.3 386.6 174.3 386.6 246C386.6 317.7 327.7 376.7 256 376.7C184.3 376.7 125.3 317.7 125.3 246C125.3 174.3 184.3 115.3 256 115.3Z" fill="#0055A4"/>
  <path d="M157 227.5H354.4V265H157V227.5Z" fill="#0055A4"/>
  <path d="M231.7 175.5H280.4V215H231.7V175.5Z" fill="#0055A4"/>
  <path d="M231.7 276.5H280.4V316H231.7V276.5Z" fill="#0055A4"/>
</svg>