<?xml version="1.0" encoding="UTF-8"?>
<svg width="512" height="512" viewBox="0 0 512 512" fill="none" xmlns="http://www.w3.org/2000/svg">
  <circle cx="256" cy="256" r="256" fill="white"/>
  <path d="M245.6 115H266.4C270.4 115 273.6 118.2 273.6 122.2V149.8H238.4V122.2C238.4 118.2 241.6 115 245.6 115Z" fill="#2D9D5B"/>
  <path d="M163.5 149.8H348.5V177.4H163.5V149.8Z" fill="#2D9D5B"/>
  <path d="M382.9 177.4H129.1C126.3 177.4 124 179.7 124 182.5V196.7C124 199.6 126.3 201.9 129.1 201.9H137.3V356.7C137.3 367.3 145.9 376 156.5 376H355.5C366.1 376 374.7 367.3 374.7 356.7V201.9H382.9C385.7 201.9 388 199.6 388 196.7V182.5C388 179.7 385.7 177.4 382.9 177.4ZM256 284.8C232.4 284.8 213.3 265.8 213.3 242.1C213.3 218.5 232.4 199.4 256 199.4C279.6 199.4 298.7 218.5 298.7 242.1C298.7 265.8 279.6 284.8 256 284.8Z" fill="#2D9D5B"/>
  <path d="M148.4 256H182.4V290H148.4V256Z" fill="#2D9D5B"/>
  <path d="M148.4 303.1H182.4V337.1H148.4V303.1Z" fill="#2D9D5B"/>
  <path d="M329.6 256H363.6V290H329.6V256Z" fill="#2D9D5B"/>
  <path d="M329.6 303.1H363.6V337.1H329.6V303.1Z" fill="#2D9D5B"/>
  <path d="M256 267.3C242.5 267.3 231.6 256.2 231.6 242.5C231.6 228.7 242.7 217.6 256.2 217.6C269.8 217.6 280.9 228.7 280.9 242.2C280.9 255.8 269.5 267.3 256 267.3Z" fill="white"/>
  <path d="M319.5 394.3C319.5 397.3 317.1 399.7 314.1 399.7H197.9C194.9 399.7 192.5 397.3 192.5 394.3V378.8H319.5V394.3Z" fill="#2D9D5B"/>
</svg>