<?xml version="1.0" encoding="UTF-8"?>
<svg xmlns="http://www.w3.org/2000/svg" viewBox="0 0 300 300">
  <path d="M150 15C76.7 15 17.3 74.4 17.3 147.7C17.3 221 76.7 280.4 150 280.4C223.3 280.4 282.7 221 282.7 147.7C282.7 74.4 223.3 15 150 15ZM150 35.4C212.2 35.4 262.3 85.5 262.3 147.7C262.3 209.9 212.2 260 150 260C87.8 260 37.7 209.9 37.7 147.7C37.7 85.5 87.8 35.4 150 35.4Z" fill="white"/>
  <path d="M65.9 137.3H232.1v22.5H65.9v-22.5Z" fill="white"/>
  <path d="M128.5 97.5h41.3v25.1h-41.3V97.5Z" fill="white"/>
  <path d="M128.5 175.9h41.3V201h-41.3v-25.1Z" fill="white"/>
</svg>